<?xml version="1.0" encoding="utf-8"?>
<svg xmlns="http://www.w3.org/2000/svg" width="120" height="100">
  <defs>
    <linearGradient gradientUnits="userSpaceOnUse" x1="13.5" y1="2" x2="13.5" y2="25" id="gradient-0" gradientTransform="matrix(0.711995, -0.873012, 0.643838, 0.811654, 2.600395, 12.162359)">
      <stop offset="0" style="stop-color: rgb(49.412% 33.333% 85.49%)"/>
      <stop offset="1" style="stop-color: rgb(28.855% 15.733% 65.137%)"/>
    </linearGradient>
  </defs>
  <path fill="#fff" fill-opacity=".8" d="M0 13.5C0 6 6 0 13.5 0S27 6 27 13.5 20.96 27 13.5 27 0 21 0 13.5zm22 0a8.5 8.5 0 1 0-16.99-.01A8.5 8.5 0 0 0 22 13.5z"/>
  <circle cx="13.5" cy="13.5" r="11.5" style="fill: url(&quot;#gradient-0&quot;);" transform="matrix(1.24328, 0, 0, 1, -6.082009, 0)"/>
  <circle cx="13.5" cy="13.5" r="8.5" fill="#fff"/>
  <g>
    <linearGradient id="a" x1="-340" x2="-339.1" y1="391.9" y2="392.7" gradientUnits="userSpaceOnUse" gradientTransform="matrix(21.2161 0 0 -21.7879 7262.04 8575.11)">
      <stop offset="0"/>
      <stop offset="1" stop-opacity="0"/>
    </linearGradient>
    <path fill="url(#a)" d="M48.72 39.7c4.71-2.4 17.82-11.52 18.3-11.98.56-.52 1.07-1.06 1.5-1.62 3-4 1.11-7.62-4.44-8.03-.47-.03-1.06-.1-1.68-.16-.96 3.43-3.22 7.6-6.43 12.33a114.12 114.12 0 0 1-6.14 8.2l-.54.67c-.12.15-.27.32-.47.5-.03-.01-.02-.01-.12.06h.02z" opacity=".5"/>
    <path fill="#fff" fill-opacity=".8" d="M36 13.5C36 6 42 0 49.5 0a13.44 13.44 0 0 1 13.3 15.82l.02.16-.04.23c-.6 3.7-3.06 8.47-6.8 14a118.34 118.34 0 0 1-6.14 8.22c-.25.3-.44.52-.55.7a3.59 3.59 0 0 1-1.2.97c-.4.2-.86.27-1.4.2l-.21-.04a2.29 2.29 0 0 1-1.66-1.68 2.4 2.4 0 0 1 0-1.19c0-.07.02-.13.04-.19l2.77-10.26A13.61 13.61 0 0 1 36 13.5z"/>
    <path fill="#0f0" d="M38 13.5C38 7.1 43.1 2 49.5 2a11.44 11.44 0 0 1 11.28 13.7v.15C59.5 23.85 47.7 37.8 47.7 37.8s-.38.52-.73.4c-.37-.1-.2-.56-.2-.56l3.42-12.71c-.21.07-.49.07-.69.07C43.15 25 38 19.9 38 13.5z"/>
    <circle cx="49.5" cy="13.5" r="8.5" fill="#fff"/>
  </g>
  <g>
    <path fill="#fff" fill-opacity=".8" d="M0 60h120v2H0zM0 85h120v2H0z"/>
    <path fill="#f00" d="M 0 62 C 0.343 56.171 120.113 60.083 120 62 L 120 65 L 0 65 L 0 62 Z M 0 82 L 120 82 L 120 85 L 0 85 L 0 82 Z"/>
    <path fill="#fff" d="M0 65h120v17H0z"/>
  </g>
  <path style="fill: rgb(126, 85, 218); stroke: rgb(0, 0, 0);" d="M 3.068 5.776 C 1.642 4.349 -1.043 3.83 -2.166 2.707 C -2.27 2.603 -3.61 1.805 -3.61 1.805 C -3.61 1.805 -3.339 3.52 -3.249 3.61 C -2.458 4.4 -2.53 6.314 -1.805 7.039 C -1.609 7.235 0.441 9.486 0 9.927 C -0.993 10.92 -2.076 11.822 -3.068 12.815 C -3.136 12.883 -4.066 13.442 -3.61 13.898 C -3.094 14.414 -0.821 15.162 0 15.162 C 0.165 15.162 1.985 15.162 1.985 15.162 C 1.985 15.162 0.774 15.109 0.722 15.162 C 0.257 15.627 -0.73 16.622 -1.082 17.328 C -1.568 18.299 -0.226 19.54 -0.902 20.216 C -1.667 20.981 -1.444 25.845 -1.444 27.075 C -1.444 28.211 -1.675 30.093 -1.083 30.685 C -0.346 31.421 0.264 23.382 0.361 23.285 C 1.011 22.635 0.901 22.022 1.624 21.299 C 2.346 20.577 1.263 23.826 1.985 23.104 C 2.677 22.412 1.888 19.952 2.527 19.313 C 2.84 19 2.792 18.146 3.068 17.869 C 3.151 17.787 4.042 16.858 3.971 16.786 C 2.444 15.26 2.166 11.631 2.166 8.664 C 2.166 7.664 2.346 5.054 3.068 5.054"/>
  <ellipse style="fill: rgb(216, 216, 216); stroke: rgb(0, 0, 0);" cx="24.734" cy="62.552" rx="2.961" ry="1.128"/>
  <ellipse style="fill: rgb(216, 216, 216); stroke: rgb(0, 0, 0);" cx="39.258" cy="62.552" rx="4.23" ry="0.846"/>
  <ellipse style="fill: rgb(216, 216, 216); stroke: rgb(0, 0, 0);" cx="56.744" cy="62.27" rx="3.102" ry="1.41"/>
  <ellipse style="fill: rgb(216, 216, 216); stroke: rgb(0, 0, 0);" cx="75.64" cy="61.847" rx="3.948" ry="1.269"/>
  <ellipse style="fill: rgb(216, 216, 216); stroke: rgb(0, 0, 0);" cx="94.818" cy="62.552" rx="2.256" ry="1.128"/>
</svg>