<?xml version="1.0" encoding="utf-8"?>
<svg xmlns="http://www.w3.org/2000/svg" width="120" height="100">
  <path fill="#fff" fill-opacity=".8" d="M -11.732 13.5 C -15.577 -8.575 1.606 -6.471 13.5 0 C 25.394 6.471 27 6 27 13.5 C 27 21 20.96 27 13.5 27 C 6.04 27 -7.887 35.575 -11.732 13.5 Z M 22 13.5 C 22.228 6.961 15.292 2.627 9.515 5.699 C 6.648 7.223 4.901 10.246 5.01 13.49 C 5.231 20.03 12.448 23.878 18.001 20.417 C 20.402 18.921 21.901 16.328 22 13.5 Z"/>
  <path style="fill: rgb(30, 152, 255);" d="M 11.01 24.127 L -2.888 26.112 L 2.346 18.53 L -7.581 14.921 L 0.542 10.95 L -4.512 1.564 L 8.483 5.535"/>
  <circle cx="13.5" cy="13.5" r="11.5" fill="#1e98ff"/>
  <circle cx="13.5" cy="13.5" r="8.5" fill="#fff"/>
  <g>
    <linearGradient id="a" x1="-340" x2="-339.1" y1="391.9" y2="392.7" gradientUnits="userSpaceOnUse" gradientTransform="matrix(21.2161 0 0 -21.7879 7262.04 8575.11)">
      <stop offset="0"/>
      <stop offset="1" stop-opacity="0"/>
    </linearGradient>
    <path fill="url(#a)" d="M48.72 39.7c4.71-2.4 17.82-11.52 18.3-11.98.56-.52 1.07-1.06 1.5-1.62 3-4 1.11-7.62-4.44-8.03-.47-.03-1.06-.1-1.68-.16-.96 3.43-3.22 7.6-6.43 12.33a114.12 114.12 0 0 1-6.14 8.2l-.54.67c-.12.15-.27.32-.47.5-.03-.01-.02-.01-.12.06h.02z" opacity=".5"/>
    <path fill="#fff" fill-opacity=".8" d="M36 13.5C36 6 42 0 49.5 0a13.44 13.44 0 0 1 13.3 15.82l.02.16-.04.23c-.6 3.7-3.06 8.47-6.8 14a118.34 118.34 0 0 1-6.14 8.22c-.25.3-.44.52-.55.7a3.59 3.59 0 0 1-1.2.97c-.4.2-.86.27-1.4.2l-.21-.04a2.29 2.29 0 0 1-1.66-1.68 2.4 2.4 0 0 1 0-1.19c0-.07.02-.13.04-.19l2.77-10.26A13.61 13.61 0 0 1 36 13.5z"/>
    <path fill="#0f0" d="M38 13.5C38 7.1 43.1 2 49.5 2a11.44 11.44 0 0 1 11.28 13.7v.15C59.5 23.85 47.7 37.8 47.7 37.8s-.38.52-.73.4c-.37-.1-.2-.56-.2-.56l3.42-12.71c-.21.07-.49.07-.69.07C43.15 25 38 19.9 38 13.5z"/>
    <circle cx="49.5" cy="13.5" r="8.5" fill="#fff"/>
  </g>
  <g>
    <path fill="#fff" fill-opacity=".8" d="M0 60h120v2H0zM0 85h120v2H0z"/>
    <path fill="#f00" d="M0 62h120v3H0zM0 82h120v3H0z"/>
    <path fill="#fff" d="M0 65h120v17H0z"/>
  </g>
</svg>